<mxfile host="app.diagrams.net" modified="2024-01-27T16:33:20.942Z" agent="Mozilla/5.0 (Macintosh; Intel Mac OS X 10_15_7) AppleWebKit/605.1.15 (KHTML, like Gecko) Version/17.3 Safari/605.1.15" version="23.0.2" etag="8B699rp9vLiuxD8o16Ml" type="github">
  <diagram name="Page-1" id="43SnWQE-GR8fj06vaxMd">
    <mxGraphModel>
      <root>
        <mxCell id="0" />
        <mxCell id="1" parent="0" />
      </root>
    </mxGraphModel>
  </diagram>
</mxfile>
